<svg version="1.0" xmlns="http://www.w3.org/2000/svg"
 width="339.000000pt" height="368.000000pt" viewBox="0 0 339.000000 368.000000"
 preserveAspectRatio="xMidYMid meet">

<g transform="translate(0.000000,368.000000) scale(0.100000,-0.100000)"
fill="#000000" stroke="none">
<path d="M0 1840 l0 -1840 1695 0 1695 0 -1 1313 c0 820 -4 1300 -10 1280 -13
-46 -105 -89 -221 -104 -66 -9 -88 -15 -88 -26 0 -13 10 -14 58 -9 92 11 159
34 199 69 38 33 37 25 -3 -29 l-23 -31 24 -59 c42 -101 29 -220 -33 -304 l-29
-40 19 -40 c17 -33 18 -42 6 -56 -61 -76 -125 -104 -238 -104 -64 0 -67 -1
-63 -23 4 -22 7 -22 86 -16 45 4 100 14 122 23 48 21 95 63 95 87 0 10 5 21
10 24 13 8 13 -99 0 -147 -6 -21 -16 -43 -23 -50 -7 -8 -13 -20 -15 -28 -2 -8
-10 -22 -18 -31 -12 -14 -12 -22 7 -64 18 -40 21 -62 17 -131 -4 -72 -9 -90
-37 -135 l-32 -53 18 -40 c26 -58 24 -167 -4 -227 -42 -92 -132 -159 -234
-174 -42 -6 -50 -12 -78 -54 -34 -53 -103 -107 -122 -95 -7 4 -10 3 -5 -4 7
-11 -32 -26 -96 -37 -21 -3 -50 -17 -64 -30 -43 -40 -127 -76 -204 -87 -59 -9
-74 -8 -81 3 -7 11 -9 11 -9 -3 0 -25 -81 -91 -136 -111 -27 -10 -79 -21 -116
-24 -51 -4 -68 -10 -68 -21 0 -23 131 -11 197 18 47 20 123 87 123 108 0 4 28
8 63 9 76 2 140 24 191 65 26 21 35 25 28 12 -24 -44 -114 -110 -133 -98 -7 4
-9 3 -6 -3 9 -15 -46 -33 -97 -33 -39 0 -43 -3 -65 -46 -48 -91 -166 -164
-264 -164 -40 0 -43 -3 -66 -46 -14 -25 -46 -65 -73 -89 -159 -143 -405 -99
-504 89 -26 50 -32 56 -69 61 -63 10 -139 49 -184 94 -45 45 -58 81 -14 38 39
-37 116 -68 182 -74 53 -5 59 -8 77 -41 45 -84 155 -133 294 -134 132 0 238
46 295 128 18 26 26 29 75 30 30 1 73 6 96 13 44 12 134 67 134 82 0 6 -15 -1
-32 -14 -42 -32 -108 -54 -186 -63 -47 -5 -62 -4 -62 6 0 7 -10 -2 -23 -21
-27 -41 -104 -94 -160 -111 -54 -16 -220 -16 -274 0 -59 18 -134 71 -158 112
-17 30 -24 35 -53 32 -44 -4 -138 24 -187 56 -22 14 -44 25 -48 24 -4 -1 -15
14 -23 33 -11 28 -20 35 -43 35 -38 0 -92 20 -85 31 3 5 -1 6 -9 4 -31 -13
-157 117 -157 162 0 8 -12 13 -32 13 -76 0 -186 78 -228 160 -16 32 -26 40
-48 40 -40 0 -126 46 -161 86 -76 86 -101 203 -63 301 17 45 18 55 6 70 -21
29 -16 38 8 16 38 -35 88 -55 150 -61 50 -4 61 -9 74 -31 9 -15 31 -38 50 -51
61 -41 204 -67 204 -36 0 9 -19 16 -59 20 -70 8 -172 56 -195 91 -13 19 -25
25 -54 25 -50 0 -133 25 -164 50 -14 10 -28 17 -31 14 -3 -4 -14 11 -23 32
-25 58 -24 178 3 229 19 37 20 42 6 60 -30 39 -65 127 -60 150 2 14 0 26 -5
27 -4 2 -5 26 -1 53 l6 50 14 -42 c22 -66 87 -103 207 -117 44 -6 61 -5 67 6
17 26 8 33 -47 35 -109 5 -187 41 -219 103 -14 26 -13 33 1 63 16 34 16 36 -9
69 -29 37 -57 108 -57 142 0 16 4 13 18 -14 23 -46 108 -90 190 -97 48 -4 60
-3 65 10 5 13 -4 17 -41 22 -110 15 -171 40 -214 86 -24 26 -26 33 -19 76 7
47 7 47 15 17 15 -66 95 -110 217 -121 61 -5 66 -4 72 16 4 18 1 21 -27 21
-53 0 -148 21 -187 41 -20 10 -47 34 -58 53 l-22 35 20 39 c18 35 18 42 6 52
-50 42 -91 171 -79 253 7 48 8 50 15 23 4 -16 18 -39 30 -52 47 -50 248 -87
263 -48 3 9 6 17 6 18 0 2 -33 6 -72 9 -98 7 -164 33 -200 78 l-30 37 21 41
c25 48 33 52 25 12 -12 -61 63 -99 211 -108 l90 -5 30 32 30 32 -30 -9 c-16
-4 -68 -8 -115 -7 -108 1 -174 26 -195 76 -13 31 -12 34 13 61 35 36 135 84
192 92 25 4 65 2 89 -4 l44 -10 44 49 c69 77 172 115 274 101 41 -6 45 -4 91
42 45 45 91 69 54 28 -46 -51 24 -95 150 -95 65 0 89 5 130 25 27 13 50 31 52
40 1 8 -8 31 -21 50 -41 61 -40 75 6 109 54 39 134 63 201 58 50 -3 55 -1 103
43 54 48 129 79 192 79 46 0 106 -17 124 -35 8 -8 17 -12 20 -9 3 4 27 -14 54
-39 46 -42 52 -45 119 -49 83 -6 159 -42 204 -96 27 -33 32 -34 98 -37 87 -2
162 -36 219 -98 39 -42 40 -43 109 -43 100 0 216 -59 253 -126 11 -23 18 -24
89 -25 52 0 93 -6 127 -19 44 -17 50 -23 50 -48 0 -59 -90 -89 -200 -66 -55
11 -105 44 -105 70 0 5 9 19 20 30 22 22 26 45 10 55 -5 3 -10 0 -10 -8 0 -8
-7 -20 -15 -27 -9 -7 -13 -15 -10 -18 3 -3 -5 -16 -17 -29 l-22 -23 20 -28
c32 -42 103 -62 211 -60 75 3 97 7 120 24 35 26 40 50 17 75 -9 10 -13 19 -8
19 17 0 91 -84 113 -127 19 -39 28 -74 16 -61 -3 3 -20 -9 -38 -27 -42 -42
-118 -65 -212 -65 l-72 0 0 -32 c0 -71 -112 -128 -258 -131 l-75 -1 0 -32 c0
-39 -35 -79 -93 -104 -51 -23 -175 -44 -223 -38 -32 4 -34 2 -34 -27 0 -17 -7
-40 -15 -53 -39 -55 -173 -102 -292 -102 l-63 0 0 -30 c0 -42 -62 -102 -136
-131 -50 -19 -78 -23 -184 -23 -155 -1 -222 18 -287 79 -36 35 -43 48 -43 81
l0 39 -68 3 c-82 3 -164 25 -215 58 -41 27 -69 78 -61 111 5 19 0 20 -78 25
-141 9 -243 69 -241 142 l1 33 -79 6 c-112 9 -218 60 -220 106 0 12 -3 10 -8
-4 -12 -29 -2 -52 35 -85 36 -31 117 -60 170 -60 17 0 45 -3 62 -6 26 -5 30
-11 30 -35 -2 -63 60 -109 181 -135 36 -7 82 -14 102 -14 33 0 35 -2 35 -35 0
-78 111 -143 262 -152 73 -5 82 -8 77 -24 -9 -26 18 -81 53 -111 77 -64 264
-96 404 -68 124 24 218 90 218 153 0 25 3 27 43 27 66 0 166 19 218 41 61 27
110 77 111 116 l1 30 91 6 c152 8 256 64 256 136 0 28 0 28 83 34 151 10 247
59 247 125 l0 29 78 7 c95 8 139 20 183 49 69 46 68 41 69 545 l0 452 -1695 0
-1695 0 0 -1840z m1224 1486 c-3 -8 4 -24 15 -35 46 -46 -22 -91 -136 -91 -86
0 -136 25 -130 67 5 37 60 56 159 55 43 0 80 4 83 9 9 14 15 11 9 -5z"/>
<path d="M1043 3298 c-72 -34 41 -76 126 -47 35 12 40 33 12 49 -27 14 -30 13
-24 -9 6 -22 -32 -35 -72 -25 -26 6 -34 29 -12 37 6 3 8 5 2 6 -5 0 -20 -5
-32 -11z"/>
<path d="M1696 3537 c-17 -12 -17 -14 -1 -27 23 -19 126 -20 149 -1 17 14 17
16 0 28 -23 17 -35 16 -28 -2 4 -9 -3 -16 -20 -21 -37 -9 -79 3 -72 21 7 18
-5 19 -28 2z"/>
<path d="M1616 3509 c-8 -12 -12 -28 -9 -36 23 -60 244 -71 313 -15 20 16 21
21 10 42 l-13 25 -10 -22 c-21 -48 -148 -69 -227 -37 -38 15 -44 23 -41 52 3
18 -6 15 -23 -9z"/>
<path d="M1545 3450 c-3 -5 6 -21 21 -33 53 -46 -5 -87 -123 -87 -82 0 -139
27 -130 61 5 20 5 20 -14 3 -32 -29 -24 -53 28 -76 53 -23 177 -28 228 -8 36
14 65 39 65 56 0 19 -68 96 -75 84z"/>
<path d="M1976 3444 c-8 -21 -4 -25 14 -14 11 7 12 12 4 20 -8 8 -13 7 -18 -6z"/>
<path d="M1491 3423 c10 -12 10 -16 -2 -24 -31 -19 -99 -4 -85 20 11 17 -20
13 -34 -4 -20 -24 1 -38 65 -43 40 -3 61 0 81 12 28 19 21 39 -17 49 -17 5
-18 3 -8 -10z"/>
<path d="M2011 3417 c-13 -6 -24 -16 -24 -22 0 -16 45 -35 85 -35 48 0 88 16
88 35 0 8 -2 15 -4 15 -2 0 -11 3 -20 6 -11 4 -16 1 -16 -10 0 -21 -45 -31
-77 -17 -21 9 -23 14 -13 26 15 18 12 18 -19 2z"/>
<path d="M1926 3395 c-30 -28 -33 -46 -8 -67 29 -26 82 -38 161 -38 120 1 197
47 147 89 -11 9 -15 7 -19 -9 -12 -46 -146 -66 -226 -34 -47 18 -58 40 -35 65
25 27 12 23 -20 -6z"/>
<path d="M1650 3363 c19 -24 19 -28 5 -49 -14 -22 -14 -23 7 -15 13 5 22 15
21 22 -2 11 15 14 77 14 66 0 80 -3 77 -15 -1 -8 10 -23 26 -33 66 -41 2 -97
-113 -97 -86 0 -135 23 -135 64 l1 28 -23 -26 c-30 -36 -18 -59 44 -82 89 -34
256 -14 282 35 11 20 -3 48 -36 74 -24 19 -29 47 -14 75 8 15 0 17 -82 17 -51
0 -107 3 -125 7 l-33 8 21 -27z"/>
<path d="M2253 3274 c-24 -24 -43 -48 -43 -53 0 -6 10 -19 22 -31 63 -59 270
-59 323 0 17 19 17 21 -1 47 -18 27 -19 27 -22 7 -6 -41 -38 -58 -117 -62 -94
-5 -165 22 -165 62 0 14 3 26 8 26 14 1 55 37 46 43 -5 2 -28 -15 -51 -39z"/>
<path d="M1674 3286 c-17 -14 -18 -16 -3 -31 22 -22 89 -30 133 -15 40 13 47
34 17 50 -26 14 -31 13 -25 -5 9 -23 -39 -41 -72 -26 -17 7 -24 17 -20 26 7
19 -5 19 -30 1z"/>
<path d="M2314 3275 c-19 -15 -19 -15 0 -30 29 -22 83 -29 127 -16 42 13 51
34 20 51 -27 14 -30 13 -24 -9 3 -13 -2 -20 -20 -25 -35 -8 -81 10 -73 29 7
19 -5 19 -30 0z"/>
<path d="M1313 3252 c20 -22 22 -63 5 -81 -11 -10 -8 -10 12 -3 14 6 24 16 22
25 -2 13 11 16 83 16 84 -1 85 -1 79 -24 -4 -17 -1 -25 15 -30 28 -8 37 -42
17 -64 -34 -37 -141 -52 -218 -31 -42 12 -70 44 -61 69 5 13 2 12 -16 -3 -33
-30 -23 -57 32 -85 103 -51 297 -18 305 52 4 33 21 31 42 -6 13 -24 13 -28 -9
-57 l-23 -31 32 16 c22 11 29 21 26 33 -5 15 4 17 84 17 83 0 89 -1 84 -18 -4
-13 4 -27 26 -46 41 -34 35 -61 -18 -87 -53 -26 -168 -24 -213 3 -28 16 -34
26 -34 52 l0 33 -22 -27 c-30 -34 -29 -49 3 -74 39 -31 99 -43 184 -39 108 5
175 44 157 91 -2 7 -4 15 -3 18 0 3 -14 18 -31 33 -38 32 -41 53 -13 89 l20
25 -38 -9 c-50 -12 -138 -11 -187 2 -22 6 -49 12 -59 13 -23 3 -66 51 -66 73
0 9 10 27 23 41 l22 24 -30 -9 c-43 -12 -185 -8 -220 6 -28 12 -28 11 -12 -7z"/>
<path d="M1948 3238 c26 -28 28 -46 7 -75 -14 -20 -14 -21 10 -9 17 7 24 17
21 29 -4 15 5 17 81 17 80 0 85 -1 80 -19 -4 -15 2 -22 23 -30 64 -22 53 -81
-18 -101 -111 -30 -242 9 -227 69 6 25 6 25 -15 6 -61 -55 24 -118 160 -118
63 0 89 5 127 24 42 21 48 28 48 56 1 18 -1 30 -4 27 -9 -9 -71 60 -71 80 0
11 8 28 18 39 16 19 16 19 -8 12 -37 -12 -190 -9 -225 5 l-30 11 23 -23z"/>
<path d="M877 3191 c-3 -11 1 -25 9 -32 8 -6 14 -19 14 -29 0 -43 -83 -75
-176 -67 -79 6 -118 28 -111 63 4 24 3 24 -14 8 -26 -24 -24 -59 5 -78 73 -47
276 -31 323 26 10 12 13 72 3 62 -2 -3 -14 11 -26 31 -19 32 -22 34 -27 16z"/>
<path d="M2605 3171 c-6 -11 -23 -35 -39 -55 -27 -34 -27 -37 -13 -60 46 -69
284 -80 342 -16 19 21 13 55 -11 64 -8 3 -12 1 -9 -4 10 -17 -41 -58 -80 -66
-87 -16 -205 18 -214 61 -2 12 7 27 24 41 20 16 25 26 18 38 -7 14 -10 13 -18
-3z"/>
<path d="M688 3164 c-16 -8 -28 -19 -28 -24 0 -36 131 -44 171 -11 26 21 21
34 -21 46 -21 7 -23 6 -13 -7 26 -30 -48 -54 -87 -28 -13 9 -12 12 4 25 25 19
9 19 -26 -1z"/>
<path d="M1343 3158 c-51 -25 -13 -59 66 -60 54 0 91 15 91 38 0 15 -48 39
-58 29 -3 -3 0 -5 6 -5 18 0 14 -27 -4 -34 -9 -3 -29 -6 -45 -6 -33 0 -51 26
-28 41 19 12 -1 10 -28 -3z"/>
<path d="M1989 3141 l-23 -18 27 -18 c47 -30 167 -17 167 19 0 14 -49 40 -58
31 -3 -3 0 -5 6 -5 18 0 14 -27 -4 -34 -9 -3 -29 -6 -45 -6 -33 0 -51 26 -28
41 11 7 11 9 -2 9 -9 0 -27 -8 -40 -19z"/>
<path d="M2649 3131 l-23 -18 27 -17 c30 -20 131 -24 153 -5 21 17 17 34 -11
47 -30 14 -46 16 -26 3 24 -15 5 -41 -31 -41 -42 0 -63 13 -55 34 8 21 -6 20
-34 -3z"/>
<path d="M972 3109 c20 -27 20 -29 4 -53 -12 -19 -13 -26 -4 -26 22 0 41 17
36 31 -4 11 13 14 83 14 49 0 89 -1 89 -3 0 -2 -5 -12 -11 -24 -9 -16 -7 -23
11 -35 14 -10 20 -23 18 -41 -5 -40 -64 -65 -152 -65 -100 0 -157 32 -139 80
5 12 3 14 -8 8 -16 -11 -30 -13 -134 -21 -65 -5 -91 -3 -137 13 l-57 20 24
-23 c29 -26 31 -50 10 -81 -14 -20 -14 -21 13 -14 19 6 26 14 25 28 -2 18 3
19 88 15 87 -4 90 -4 110 22 27 34 34 33 34 -6 0 -26 7 -36 35 -52 29 -18 52
-21 135 -21 85 0 106 3 143 23 23 12 43 28 44 35 3 30 3 66 0 62 -9 -9 -42 44
-42 66 0 12 9 33 21 45 l21 22 -39 -9 c-55 -13 -131 -11 -190 4 l-51 14 20
-28z"/>
<path d="M2274 3091 c26 -29 19 -64 -19 -101 -19 -19 -35 -44 -35 -55 0 -50
78 -84 195 -85 64 0 90 5 125 23 40 20 45 26 44 54 -2 29 0 32 18 22 10 -6 22
-18 26 -27 8 -19 4 -18 115 -20 78 -2 84 -3 83 -23 -1 -14 9 -25 34 -35 l34
-15 -22 24 c-26 28 -28 63 -4 90 16 20 16 20 -3 13 -39 -15 -161 -18 -217 -7
-32 7 -60 11 -62 9 -2 -2 -14 6 -26 17 l-23 20 12 -22 c27 -52 -29 -87 -140
-87 -80 0 -130 19 -153 57 -9 15 -6 22 16 42 15 12 32 25 39 27 9 3 9 9 1 24
-10 19 -7 19 78 19 84 0 89 -1 84 -20 -4 -16 2 -23 27 -32 30 -12 31 -11 15 6
-21 23 -20 59 1 83 16 17 15 18 -18 11 -43 -10 -152 -10 -203 -1 -36 7 -37 6
-22 -11z"/>
<path d="M515 3051 c-3 -11 -1 -28 6 -39 25 -40 -16 -77 -103 -91 -97 -16
-196 17 -184 62 7 28 -18 14 -28 -16 -21 -57 57 -93 184 -84 80 5 121 19 158
51 27 23 28 43 5 69 -10 11 -12 17 -4 12 11 -6 5 7 -25 53 -1 2 -5 -6 -9 -17z"/>
<path d="M315 3028 c-45 -26 -36 -53 21 -64 44 -8 97 2 123 24 25 21 16 38
-24 47 -21 5 -26 4 -16 -3 28 -20 4 -42 -44 -42 -38 0 -45 3 -45 19 0 11 6 22
13 24 6 3 8 6 2 6 -5 0 -19 -5 -30 -11z"/>
<path d="M983 3018 c-33 -16 -29 -44 8 -57 43 -15 83 -14 124 3 41 18 45 38
10 54 -32 15 -57 15 -32 1 28 -16 2 -39 -44 -39 -42 0 -57 13 -39 35 14 17 4
18 -27 3z"/>
<path d="M1649 3001 c-22 -18 -23 -21 -8 -36 38 -39 179 -26 179 16 0 12 -10
23 -26 29 -31 12 -44 13 -25 1 8 -5 11 -16 8 -25 -7 -18 -72 -22 -97 -6 -13 9
-12 12 4 25 16 12 17 15 4 15 -9 0 -26 -9 -39 -19z"/>
<path d="M2333 3000 c-26 -10 -30 -32 -9 -49 36 -30 176 -19 176 14 0 16 -38
45 -59 45 -11 0 -10 -3 4 -13 10 -8 15 -19 11 -25 -9 -15 -75 -15 -96 -2 -13
9 -12 12 4 25 23 17 5 20 -31 5z"/>
<path d="M3008 2989 c-65 -37 65 -90 146 -59 34 13 33 36 -4 55 -37 19 -50 19
-24 1 39 -30 -41 -54 -85 -27 -12 8 -12 12 -2 25 11 13 11 16 0 16 -8 0 -22
-5 -31 -11z"/>
<path d="M1271 2962 c24 -31 24 -43 -1 -75 l-21 -26 31 11 c26 9 31 15 27 35
-4 21 -2 24 17 19 11 -3 54 -6 94 -6 70 0 72 -1 60 -20 -11 -18 -9 -23 15 -43
62 -49 8 -105 -108 -115 -48 -3 -77 0 -110 13 -58 22 -73 47 -49 83 l17 27
-32 -29 c-38 -36 -40 -68 -6 -95 28 -21 105 -41 160 -41 125 0 236 74 180 120
-8 7 -13 16 -10 20 2 4 -4 15 -15 25 -26 24 -25 63 3 93 20 23 21 25 2 17 -39
-15 -169 -17 -222 -2 l-52 14 20 -25z"/>
<path d="M1935 2954 c36 -33 31 -58 -20 -113 -25 -26 -45 -55 -45 -64 0 -27
57 -65 117 -77 142 -30 298 27 260 94 -6 12 -10 24 -9 29 1 4 -2 7 -7 7 -18 0
-61 50 -61 71 0 13 10 34 23 47 20 23 21 25 2 18 -41 -16 -179 -18 -232 -3
l-53 14 25 -23z m141 -44 c69 0 75 -2 72 -19 -2 -13 9 -27 32 -43 43 -29 46
-62 8 -91 -20 -15 -47 -21 -105 -24 -67 -4 -84 -1 -123 19 -38 19 -45 28 -45
53 0 24 6 33 33 45 28 13 32 19 27 44 -4 23 -2 27 11 22 9 -3 49 -6 90 -6z"/>
<path d="M1981 2843 c-20 -16 -20 -20 -8 -37 17 -23 116 -34 160 -17 34 13 35
44 2 59 -35 16 -53 15 -30 -1 35 -26 -20 -56 -69 -37 -27 10 -35 35 -13 43 7
4 6 6 -4 6 -9 1 -26 -7 -38 -16z"/>
<path d="M805 2901 c-4 -15 -1 -28 9 -40 23 -25 20 -47 -10 -70 -38 -30 -100
-44 -168 -38 -70 6 -111 32 -111 70 1 21 -2 24 -13 15 -43 -36 -36 -70 22
-101 62 -33 191 -30 268 5 64 30 79 55 53 95 -12 17 -13 23 -4 18 9 -6 8 -1
-2 11 -9 10 -21 28 -26 38 -10 18 -11 18 -18 -3z"/>
<path d="M665 2885 c6 -2 22 -6 38 -9 30 -7 36 -30 11 -40 -9 -3 -31 -6 -50
-6 -37 0 -58 25 -33 41 20 12 4 11 -25 -2 -55 -26 -34 -59 42 -67 55 -5 122
18 122 43 0 18 -57 45 -92 44 -13 0 -18 -2 -13 -4z"/>
<path d="M2607 2840 c-45 -60 -46 -81 -8 -113 61 -51 240 -63 312 -20 29 17
34 25 33 56 -1 33 1 36 15 25 9 -7 22 -21 30 -32 12 -16 26 -18 125 -14 91 3
120 8 159 27 56 27 75 61 56 101 l-12 25 -9 -33 c-7 -27 -19 -38 -56 -55 -39
-18 -64 -22 -152 -21 -71 0 -119 6 -147 17 l-42 16 2 -26 c5 -69 -155 -100
-253 -50 -56 27 -65 64 -26 95 26 20 33 37 18 46 -5 3 -25 -17 -45 -44z"/>
<path d="M1368 2873 c7 -3 16 -2 19 1 4 3 -2 6 -13 5 -11 0 -14 -3 -6 -6z"/>
<path d="M1293 2858 c-54 -26 -9 -68 73 -68 45 0 104 22 104 40 0 12 -41 40
-60 40 -12 0 -13 -2 -1 -9 20 -13 6 -41 -21 -42 -66 -3 -95 14 -64 37 24 17 3
18 -31 2z"/>
<path d="M893 2822 c32 -34 34 -51 7 -85 l-20 -26 32 10 c18 5 34 9 36 9 1 0
0 10 -3 23 l-6 23 88 -4 c48 -2 89 -5 91 -7 1 -1 -1 -12 -6 -25 -7 -18 -3 -28
15 -46 28 -28 28 -34 4 -66 -25 -31 -81 -48 -162 -48 -114 0 -169 51 -117 108
l23 26 -31 -22 c-17 -12 -34 -18 -38 -14 -4 4 -7 3 -5 -3 1 -5 -1 -23 -6 -38
-17 -62 67 -102 202 -95 141 6 219 62 172 122 -17 21 -17 25 -4 19 11 -3 7 4
-9 20 -33 33 -33 64 2 100 l27 29 -30 -9 c-53 -14 -206 -8 -250 11 l-40 17 28
-29z"/>
<path d="M2682 2834 c-12 -8 -22 -19 -22 -24 0 -32 136 -54 181 -30 35 19 20
50 -31 65 -24 7 -24 7 -5 -9 20 -16 20 -16 1 -31 -23 -18 -50 -19 -77 -5 -22
12 -25 36 -6 43 8 4 7 6 -3 6 -9 1 -26 -6 -38 -15z"/>
<path d="M1579 2811 c44 -41 40 -64 -24 -126 -30 -29 -55 -55 -55 -58 0 -23
28 -59 56 -72 119 -56 321 -27 340 50 4 18 1 32 -11 45 -10 11 -15 20 -12 20
3 0 -8 13 -24 29 -36 36 -37 60 -4 95 l25 27 -38 -8 c-62 -13 -203 -7 -245 11
l-39 16 31 -29z m152 -51 l79 0 -6 -27 c-4 -23 0 -31 25 -45 65 -36 26 -97
-75 -118 -95 -20 -214 21 -214 73 0 18 39 53 68 62 20 6 23 12 20 36 -4 23 -1
29 9 24 8 -3 50 -5 94 -5z"/>
<path d="M1640 2697 c-74 -25 -31 -80 63 -80 62 0 97 16 97 44 0 13 -11 25
-35 35 -41 17 -77 17 -125 1z m110 -12 c16 -19 6 -32 -31 -40 -20 -5 -38 -1
-56 10 -25 17 -26 18 -8 31 25 18 79 18 95 -1z"/>
<path d="M2273 2794 c34 -31 35 -67 3 -99 -13 -13 -22 -26 -20 -28 2 -2 -5
-12 -16 -22 -79 -71 104 -158 263 -125 90 18 143 76 102 110 -8 7 -13 16 -10
20 3 5 -4 11 -15 15 -27 9 -60 53 -60 82 0 13 11 34 25 47 l25 23 -52 -14
c-68 -17 -149 -16 -217 2 l-55 14 27 -25z m148 -44 c78 0 79 0 73 -23 -4 -20
0 -26 25 -36 104 -43 66 -125 -63 -138 -62 -6 -154 17 -180 46 -25 28 -14 66
25 86 20 11 29 21 25 31 -3 8 -9 22 -13 31 -5 13 -3 15 11 10 10 -4 53 -7 97
-7z"/>
<path d="M2362 2689 c-42 -13 -51 -35 -23 -62 18 -18 33 -22 85 -22 66 0 96
14 96 45 0 9 -11 22 -25 28 -36 17 -52 15 -29 -3 19 -15 19 -15 -1 -31 -13
-10 -31 -14 -54 -10 -66 10 -66 40 1 56 26 6 28 8 8 8 -14 0 -40 -4 -58 -9z"/>
<path d="M427 2757 c-14 -37 -7 -65 23 -91 43 -36 91 -48 200 -51 l95 -3 25
31 24 30 -29 -7 c-50 -13 -185 -8 -235 9 -50 17 -86 47 -92 80 -3 19 -4 19
-11 2z"/>
<path d="M3000 2716 c0 -23 -57 -64 -112 -81 -77 -23 -164 -19 -258 10 l-25 7
29 -30 c54 -58 27 -116 -68 -149 -65 -22 -213 -23 -275 0 l-43 16 31 -33 c75
-78 0 -158 -170 -181 -108 -14 -264 36 -294 96 -20 37 -12 64 29 103 21 20 24
25 9 18 -38 -21 -149 -31 -219 -21 -150 21 -216 99 -146 172 l27 28 -30 -12
c-44 -17 -201 -15 -253 4 l-44 15 20 -21 c44 -50 38 -72 -38 -143 -37 -35 -50
-54 -50 -75 0 -51 83 -89 195 -89 147 0 246 75 188 143 l-18 21 30 -18 c72
-44 75 -92 9 -156 -61 -60 -68 -75 -54 -111 18 -43 88 -73 180 -77 164 -8 269
62 215 144 -16 24 -15 25 2 16 10 -6 29 -22 42 -36 100 -106 -116 -226 -327
-182 -86 18 -136 46 -158 88 -20 39 -12 67 28 108 29 28 30 31 8 20 -41 -22
-207 -25 -272 -6 -110 32 -150 106 -89 166 l28 29 -31 -7 c-17 -4 -78 -7 -136
-7 -93 0 -110 3 -150 25 -26 15 -52 39 -61 58 -13 25 -18 29 -23 16 -12 -32
-5 -61 22 -87 44 -43 105 -60 215 -61 82 -1 96 -3 91 -16 -19 -43 -15 -68 16
-103 44 -51 111 -72 233 -72 93 0 98 -1 92 -20 -15 -48 -15 -62 4 -91 26 -42
107 -81 199 -94 128 -20 284 18 338 83 21 25 25 39 22 72 l-5 40 116 0 c137 0
193 17 241 72 31 35 34 52 16 93 -5 13 11 15 111 15 128 0 186 17 231 66 24
25 29 68 10 87 -9 9 10 12 89 12 113 0 185 18 227 57 27 24 36 76 16 88 -5 3
-10 0 -10 -9z m-1556 -126 c-17 -41 -15 -51 10 -71 70 -55 -12 -128 -144 -128
-64 -1 -133 27 -150 59 -16 30 7 63 60 86 35 16 41 22 38 44 l-4 25 98 0 c83
0 97 -2 92 -15z m342 -175 c-17 -48 -16 -53 19 -80 30 -22 36 -32 33 -58 -10
-101 -261 -118 -324 -22 -15 23 -15 27 1 51 9 14 32 32 52 40 32 14 35 18 30
47 l-5 32 99 0 c62 0 98 -4 95 -10z"/>
<path d="M1255 2530 c-12 -4 -27 -15 -34 -24 -41 -49 105 -86 181 -45 26 14
20 50 -12 66 -28 14 -104 16 -135 3z m116 -16 c14 -18 3 -29 -39 -40 -44 -12
-99 34 -59 49 28 12 85 6 98 -9z"/>
<path d="M1605 2340 c-12 -4 -27 -16 -35 -25 -13 -15 -11 -20 13 -41 51 -44
188 -28 195 23 6 42 -108 70 -173 43z m123 -24 c2 -10 -2 -22 -10 -27 -20 -13
-72 -11 -93 5 -17 12 -17 16 -5 30 20 25 103 18 108 -8z"/>
<path d="M80 2710 c0 -4 10 -22 23 -41 28 -41 104 -74 195 -85 58 -6 62 -5 62
13 0 17 -9 21 -62 26 -83 8 -151 32 -188 67 -16 15 -30 25 -30 20z"/>
<path d="M924 2706 c-45 -20 -51 -36 -24 -58 44 -36 190 -15 190 28 0 19 -59
44 -102 44 -18 -1 -47 -7 -64 -14z m114 -18 c7 -36 -92 -45 -105 -11 -8 22 16
34 62 31 29 -2 41 -8 43 -20z"/>
<path d="M1918 2640 c44 -40 41 -67 -13 -126 -54 -59 -61 -78 -42 -108 26 -39
84 -60 175 -64 96 -5 160 10 197 44 28 26 33 65 10 84 -9 7 -14 15 -12 17 3 2
-11 19 -29 37 -41 41 -43 64 -8 105 l26 31 -28 -11 c-44 -18 -211 -16 -263 3
l-44 17 31 -29z m158 -50 c81 0 84 -1 74 -19 -15 -30 -13 -36 25 -54 35 -17
53 -52 41 -82 -10 -28 -86 -55 -156 -55 -79 0 -144 27 -162 66 -13 27 -9 32
70 95 9 7 9 15 2 29 -14 26 -13 33 6 26 9 -3 54 -6 100 -6z"/>
<path d="M1995 2520 c-12 -4 -27 -15 -35 -24 -12 -15 -11 -20 8 -38 16 -16 37
-23 79 -25 67 -4 106 12 111 45 3 18 -4 26 -32 37 -38 16 -99 19 -131 5z m116
-16 c26 -32 -46 -58 -92 -34 -22 12 -25 36 -6 43 28 12 85 6 98 -9z"/>
<path d="M3362 2647 c-22 -27 -111 -58 -197 -69 -69 -9 -85 -14 -85 -28 0 -41
224 7 274 59 15 16 26 35 24 41 -3 9 -7 8 -16 -3z"/>
<path d="M128 2577 c32 -34 107 -65 176 -73 45 -5 56 -4 56 8 0 10 -22 17 -76
25 -44 6 -97 22 -127 38 l-52 27 23 -25z"/>
<path d="M370 2528 c0 -52 136 -118 241 -118 42 0 49 3 49 20 0 17 -7 20 -47
20 -82 0 -174 31 -220 73 -19 17 -23 18 -23 5z"/>
<path d="M3033 2480 c-39 -35 -114 -59 -210 -67 -62 -5 -73 -9 -73 -24 0 -16
8 -19 48 -19 101 0 218 43 255 92 29 39 16 50 -20 18z"/>
<path d="M175 2480 c-17 -54 68 -107 186 -117 70 -6 71 -6 58 14 -9 15 -27 22
-68 27 -74 9 -139 41 -147 72 -8 29 -20 31 -29 4z"/>
<path d="M217 2480 c23 -21 163 -48 163 -31 0 6 -15 11 -33 11 -18 0 -56 6
-86 14 -29 7 -49 10 -44 6z"/>
<path d="M3273 2453 c-7 -2 -10 -10 -7 -18 12 -31 -90 -75 -175 -75 -51 0 -81
-11 -81 -31 0 -15 60 -19 125 -9 79 13 138 42 154 76 12 27 2 63 -16 57z"/>
<path d="M3206 2430 c-16 -5 -56 -11 -88 -13 -32 -3 -62 -8 -66 -12 -13 -13
132 2 168 18 38 17 31 20 -14 7z"/>
<path d="M402 2419 c12 -36 110 -78 216 -93 33 -5 42 -3 42 8 0 10 -14 17 -37
21 -82 11 -166 36 -195 57 -20 14 -29 17 -26 7z"/>
<path d="M2995 2368 c-55 -29 -130 -48 -191 -48 -39 0 -53 -4 -58 -16 -6 -15
2 -16 72 -12 87 6 167 35 203 74 27 29 25 29 -26 2z"/>
<path d="M660 2364 c0 -10 19 -36 43 -59 49 -46 114 -71 215 -82 59 -6 63 -5
60 13 -2 15 -18 21 -83 31 -97 14 -160 40 -203 83 -25 24 -32 28 -32 14z"/>
<path d="M3321 2358 c-4 -50 -120 -98 -236 -98 -71 0 -72 -1 -68 -24 8 -41
-22 -82 -84 -112 -46 -23 -74 -29 -147 -32 l-91 -4 -1 -34 c-1 -77 -104 -135
-251 -142 -51 -2 -90 -8 -87 -13 11 -18 -18 -79 -51 -108 -47 -41 -149 -71
-241 -71 l-74 0 0 -37 c0 -30 -8 -44 -45 -79 -60 -58 -144 -84 -270 -84 -126
0 -210 26 -270 84 -39 37 -45 48 -45 84 l0 42 -47 0 c-104 0 -225 47 -266 101
-10 15 -19 43 -19 63 0 34 -2 36 -31 36 -115 0 -240 51 -269 109 -14 29 -18
32 -24 17 -11 -27 21 -83 63 -110 46 -31 140 -56 206 -56 46 0 49 -2 44 -22
-7 -27 14 -77 44 -105 47 -43 170 -80 277 -83 7 0 12 -13 12 -32 0 -155 312
-232 541 -135 52 21 107 80 115 122 6 33 8 35 48 35 156 0 296 70 312 155 6
33 8 35 48 35 53 0 166 24 203 43 44 23 82 66 88 101 l6 32 89 10 c140 17 230
72 230 141 0 16 13 21 91 30 142 18 216 65 206 130 -2 15 -5 21 -6 11z"/>
<path d="M2722 2330 c-28 -45 -157 -90 -259 -90 -61 0 -63 -1 -63 -26 l0 -26
68 7 c135 13 254 66 268 120 8 33 2 40 -14 15z"/>
<path d="M457 2324 c-28 -29 33 -105 98 -123 59 -16 165 -25 165 -14 0 26 -29
41 -87 46 -63 5 -137 37 -148 64 -3 9 0 13 7 9 51 -21 123 -37 155 -34 38 4
38 4 -12 11 -44 7 -129 29 -161 43 -5 2 -13 1 -17 -2z"/>
<path d="M2963 2293 c-7 -2 -10 -10 -7 -17 13 -35 -108 -86 -202 -86 -43 0
-55 -4 -64 -20 -10 -19 -8 -20 63 -20 91 0 172 23 209 60 37 38 38 96 1 83z"/>
<path d="M2890 2264 c-25 -7 -73 -13 -107 -13 -35 -1 -63 -5 -63 -11 0 -23
187 3 215 31 5 5 7 8 5 8 -3 -1 -25 -7 -50 -15z"/>
<path d="M699 2242 c26 -49 149 -102 238 -102 69 0 49 24 -27 32 -80 9 -143
31 -187 64 -31 23 -34 24 -24 6z"/>
<path d="M410 2223 c0 -60 64 -110 168 -132 78 -16 129 -14 136 5 4 9 5 18 4
19 -2 1 -40 6 -85 12 -99 13 -169 45 -200 92 l-23 34 0 -30z"/>
<path d="M3316 2231 c-30 -34 -115 -63 -198 -69 -67 -4 -78 -7 -78 -23 0 -16
8 -19 43 -19 98 1 201 40 240 92 24 32 18 47 -7 19z"/>
<path d="M2670 2201 c-34 -25 -120 -50 -202 -58 -51 -4 -68 -10 -68 -21 0 -12
11 -14 69 -8 93 8 164 33 209 72 39 35 34 46 -8 15z"/>
<path d="M980 2177 c0 -11 19 -39 43 -62 46 -47 124 -77 230 -90 53 -7 57 -6
57 13 0 21 -24 32 -76 32 -18 0 -63 10 -100 21 -52 16 -79 32 -111 64 -35 35
-43 39 -43 22z"/>
<path d="M160 2184 c0 -2 12 -15 27 -29 33 -30 103 -55 171 -59 37 -3 55 -10
76 -31 14 -14 46 -35 71 -46 43 -19 170 -41 180 -31 17 17 -1 30 -51 37 -87
11 -151 33 -189 66 -29 26 -43 31 -100 33 -48 3 -82 11 -125 33 -33 16 -60 28
-60 27z"/>
<path d="M2366 2149 c-54 -57 -176 -98 -288 -99 -42 0 -48 -3 -48 -21 0 -21 3
-22 83 -16 132 9 241 60 273 125 21 44 14 48 -20 11z"/>
<path d="M750 2121 c0 -62 66 -105 189 -122 81 -12 105 -6 88 22 -8 14 -23 19
-53 19 -83 0 -203 53 -190 85 2 8 -2 16 -10 19 -23 9 -24 8 -24 -23z"/>
<path d="M3266 2118 c-45 -25 -135 -48 -188 -48 -28 0 -38 -4 -38 -16 0 -34
185 8 240 55 41 35 39 37 -14 9z"/>
<path d="M806 2121 c25 -26 203 -54 189 -31 -3 6 -25 10 -49 10 -24 0 -65 7
-92 15 -58 18 -61 18 -48 6z"/>
<path d="M2630 2106 c-20 -54 -93 -86 -209 -92 -52 -2 -66 -7 -79 -25 l-15
-22 99 5 c108 6 162 23 207 65 19 19 27 37 27 60 0 38 -16 44 -30 9z"/>
<path d="M2565 2093 c-22 -8 -76 -17 -120 -20 -54 -4 -72 -9 -55 -13 38 -10
140 5 190 28 52 23 44 26 -15 5z"/>
<path d="M213 2083 c-19 -49 69 -108 176 -120 57 -5 64 -4 58 10 -4 11 7 7 40
-13 66 -42 203 -67 203 -37 0 6 9 -2 20 -20 33 -55 120 -96 228 -109 59 -6 62
-5 62 15 0 17 -6 21 -31 21 -98 0 -228 54 -262 109 -9 14 -17 20 -17 14 0 -33
-157 -4 -224 42 -21 14 -34 20 -30 14 11 -18 -93 -2 -143 22 -39 19 -47 29
-45 51 3 15 -29 16 -35 1z"/>
<path d="M3016 2074 c-30 -42 -117 -76 -210 -83 -69 -5 -81 -9 -84 -25 -4 -18
1 -19 75 -14 49 4 99 14 131 28 53 23 112 79 112 105 0 20 -2 19 -24 -11z"/>
<path d="M288 2065 c36 -17 132 -33 119 -20 -4 5 -31 12 -60 16 -28 4 -61 10
-72 13 -11 4 -5 -1 13 -9z"/>
<path d="M1010 2062 c0 -19 77 -77 126 -95 27 -10 79 -21 117 -24 58 -5 67 -4
62 9 -4 11 -27 17 -71 22 -78 8 -163 38 -204 73 -17 13 -30 20 -30 15z"/>
<path d="M2336 2029 c-46 -36 -126 -61 -214 -67 -59 -3 -85 -9 -89 -19 -9 -24
3 -25 94 -13 105 14 169 39 214 86 37 38 35 44 -5 13z"/>
<path d="M3225 2028 c-15 -34 -90 -66 -160 -70 -44 -2 -59 0 -57 10 1 7 -14 2
-35 -12 -46 -30 -140 -56 -205 -56 -38 0 -48 -3 -48 -16 0 -15 9 -16 63 -11
82 9 127 22 172 53 25 17 36 20 32 10 -4 -9 2 -17 15 -22 27 -8 124 4 170 23
43 17 90 68 86 91 -5 24 -22 24 -33 0z"/>
<path d="M3160 2020 c-14 -4 -51 -8 -82 -9 -36 -1 -58 -5 -58 -12 0 -15 111
-3 154 16 34 15 26 18 -14 5z"/>
<path d="M1320 1983 c0 -29 36 -75 80 -103 185 -117 539 -76 616 72 24 46 16
46 -29 3 -139 -133 -491 -133 -624 0 -25 25 -43 36 -43 28z"/>
<path d="M1060 1934 c0 -65 78 -116 205 -135 87 -13 111 -8 96 19 -8 15 -26
21 -76 25 -76 7 -140 33 -174 71 -14 14 -20 26 -15 26 10 0 -17 20 -28 20 -5
0 -8 -12 -8 -26z"/>
<path d="M2295 1942 c-5 -4 -11 -14 -13 -22 -9 -47 -115 -90 -223 -90 -56 0
-70 -3 -78 -19 -15 -27 -5 -31 68 -31 151 0 271 63 271 141 0 29 -7 35 -25 21z"/>
<path d="M1145 1919 c45 -28 204 -52 190 -29 -3 6 -25 10 -48 10 -39 0 -76 7
-137 24 -23 6 -23 6 -5 -5z"/>
<path d="M2212 1908 c-30 -10 -87 -20 -128 -22 -65 -3 -78 -7 -101 -31 -67
-67 -188 -99 -343 -92 -113 5 -178 23 -254 73 -41 27 -41 27 -25 3 24 -36 96
-76 169 -95 48 -12 92 -15 175 -11 135 6 192 25 258 88 47 45 50 47 125 52 85
6 138 19 167 42 24 17 24 17 -43 -7z"/>
<path d="M2691 1897 c-36 -44 -116 -76 -218 -89 -72 -9 -89 -14 -90 -28 -1
-15 7 -17 60 -13 121 8 226 53 260 110 25 44 18 57 -12 20z"/>
<path d="M484 1907 c-3 -8 2 -29 10 -45 22 -42 92 -74 177 -80 64 -4 69 -3 62
14 -5 13 4 10 33 -13 44 -35 104 -57 182 -67 39 -5 52 -4 52 6 0 7 10 -2 21
-20 38 -59 162 -112 262 -112 41 0 48 3 45 18 -3 13 -18 18 -76 24 -92 10
-183 49 -223 97 -16 20 -29 30 -29 23 0 -26 -159 4 -227 43 -31 19 -61 27
-101 29 -34 2 -74 11 -98 24 -40 20 -72 50 -66 61 2 3 -1 7 -7 9 -6 2 -14 -3
-17 -11z"/>
<path d="M170 1891 c0 -20 43 -60 86 -80 25 -12 75 -25 110 -30 58 -7 64 -6
64 11 0 13 -8 18 -27 18 -56 0 -147 29 -189 59 -24 17 -44 27 -44 22z"/>
<path d="M546 1888 c7 -10 106 -30 133 -27 13 2 -13 11 -57 19 -44 8 -78 12
-76 8z"/>
<path d="M2910 1848 c-38 -44 -105 -68 -188 -68 -38 0 -43 3 -38 17 6 14 2 13
-16 -4 -47 -45 -125 -68 -252 -76 -16 -1 -31 -8 -34 -15 -6 -19 96 -15 166 7
33 10 75 29 93 42 26 18 31 20 26 6 -6 -15 1 -17 56 -17 116 0 216 46 231 106
11 44 -7 45 -44 2z"/>
<path d="M2888 1859 c-10 -5 -57 -16 -105 -23 -64 -10 -76 -14 -46 -15 54 -1
136 16 159 34 22 17 17 19 -8 4z"/>
<path d="M3274 1839 c-38 -42 -145 -79 -229 -79 -24 0 -35 -5 -35 -15 0 -11
13 -15 53 -15 99 0 197 44 228 102 15 28 6 32 -17 7z"/>
<path d="M445 1813 c11 -47 32 -70 90 -98 38 -19 78 -29 125 -33 l70 -5 0 -32
c0 -40 35 -93 77 -118 74 -43 225 -63 237 -31 9 24 9 24 -34 24 -21 0 -63 5
-92 11 -114 24 -183 83 -176 151 l4 38 -51 0 c-95 0 -208 48 -230 98 -14 31
-29 27 -20 -5z"/>
<path d="M217 1777 c10 -10 34 -28 55 -38 43 -22 151 -41 156 -28 2 5 14 -5
25 -23 30 -44 120 -88 195 -95 47 -4 60 -2 65 9 4 12 -6 17 -47 22 -83 9 -156
37 -195 74 -31 29 -44 34 -94 37 -40 2 -78 12 -118 32 -47 23 -55 26 -42 10z"/>
<path d="M2975 1780 c-16 -50 -140 -100 -247 -100 l-58 0 0 -34 c0 -44 -30
-81 -90 -111 -52 -27 -177 -50 -214 -41 -21 5 -24 1 -29 -35 -12 -88 -113
-149 -258 -157 l-87 -4 -6 -39 c-8 -53 -67 -110 -142 -140 -83 -33 -252 -33
-336 -1 -77 31 -138 97 -138 150 l0 39 -70 7 c-38 3 -95 15 -125 27 -62 23
-125 79 -125 110 0 12 -4 17 -11 14 -14 -9 -1 -63 24 -99 31 -45 135 -88 223
-94 l74 -5 0 -37 c0 -80 84 -147 222 -176 159 -34 338 20 399 120 10 17 19 40
19 51 0 19 9 22 89 31 150 18 261 89 261 167 0 25 3 27 45 27 151 0 285 75
285 159 l0 31 59 0 c136 0 261 72 261 151 0 17 -19 9 -25 -11z"/>
<path d="M1933 1758 c-4 -7 -13 -22 -18 -33 -31 -59 -151 -100 -269 -92 -113
7 -195 47 -217 104 -12 33 -35 23 -32 -13 7 -89 149 -153 315 -141 136 9 248
79 248 154 0 26 -15 38 -27 21z"/>
<path d="M2346 1712 c-16 -18 -47 -42 -69 -53 -44 -23 -154 -49 -208 -49 -33
0 -49 -12 -49 -37 0 -12 152 8 205 26 65 23 107 51 135 91 32 45 20 62 -14 22z"/>
<path d="M777 1733 c-26 -26 25 -96 90 -125 24 -11 75 -22 114 -25 65 -6 69
-5 62 12 -5 14 5 10 34 -14 47 -38 145 -71 210 -71 70 0 49 24 -28 32 -80 8
-168 40 -199 73 -15 16 -26 21 -30 15 -19 -30 -220 38 -220 74 0 17 -25 38
-33 29z"/>
<path d="M1446 1729 c2 -4 30 -18 62 -30 76 -30 241 -33 319 -6 74 26 76 39 2
16 -89 -28 -233 -26 -321 4 -37 13 -65 20 -62 16z"/>
<path d="M3225 1725 c-30 -21 -140 -47 -187 -43 -34 2 -47 -2 -70 -24 -38 -35
-117 -64 -201 -73 -50 -6 -67 -11 -67 -23 0 -12 12 -14 76 -9 83 6 169 41 201
80 14 17 30 23 73 25 73 3 148 26 185 56 32 27 24 35 -10 11z"/>
<path d="M250 1699 c0 -58 67 -103 177 -115 42 -5 54 -4 49 5 -4 6 14 -2 41
-19 54 -35 102 -49 167 -52 34 -2 47 -7 52 -20 9 -29 69 -68 135 -89 72 -22
149 -25 149 -6 0 9 -25 17 -75 25 -89 14 -155 43 -193 86 -24 27 -34 31 -83
32 -64 1 -115 16 -162 48 -18 13 -57 26 -87 30 -66 9 -107 29 -142 69 l-27 32
-1 -26z"/>
<path d="M2618 1706 c-10 -7 -15 -15 -12 -18 11 -11 -70 -67 -112 -77 -60 -15
-157 -15 -148 1 4 6 -9 -1 -28 -16 -50 -37 -135 -65 -223 -73 -57 -4 -75 -10
-75 -21 0 -12 12 -13 72 -7 85 8 151 28 193 59 47 35 55 39 49 23 -8 -22 54
-30 129 -17 106 19 183 76 175 133 -3 22 -5 24 -20 13z"/>
<path d="M875 1686 c39 -18 135 -31 135 -18 0 5 -28 12 -62 15 -35 3 -72 8
-83 11 -11 4 -6 0 10 -8z"/>
<path d="M322 1680 c10 -6 42 -13 70 -15 l53 -4 -47 8 c-25 5 -57 12 -70 16
-19 5 -20 4 -6 -5z"/>
<path d="M2545 1673 c-22 -8 -74 -18 -115 -23 l-75 -7 61 -2 c61 -1 158 21
169 39 3 6 5 9 3 9 -2 -1 -21 -8 -43 -16z"/>
<path d="M3181 1639 c-30 -40 -81 -61 -158 -65 -34 -1 -72 -10 -85 -18 -61
-40 -248 -75 -248 -47 0 7 -12 -2 -26 -19 -46 -54 -130 -87 -236 -92 -48 -2
-58 -6 -58 -20 0 -15 9 -18 48 -18 98 0 224 52 251 104 10 17 18 23 26 16 14
-12 133 5 182 25 21 9 46 23 56 32 15 14 20 15 27 4 10 -17 124 -8 176 14 47
19 84 59 84 90 0 33 -11 32 -39 -6z"/>
<path d="M210 1637 c0 -79 90 -140 208 -141 56 -1 67 2 70 17 3 14 -4 17 -50
17 -101 0 -179 37 -210 100 l-18 35 0 -28z"/>
<path d="M3128 1634 c-4 -3 -37 -9 -75 -14 l-68 -9 66 3 c37 2 75 8 85 14 11
6 14 12 8 12 -6 0 -13 -3 -16 -6z"/>
<path d="M3241 1578 c-21 -56 -119 -98 -227 -98 -57 0 -62 -2 -57 -20 5 -17
14 -20 62 -20 116 0 222 54 236 121 9 38 -1 50 -14 17z"/>
<path d="M1335 1536 c10 -46 39 -80 95 -110 74 -40 142 -56 245 -56 103 0 171
16 245 56 54 30 100 84 100 119 0 16 -4 14 -19 -12 -43 -69 -182 -123 -320
-123 -146 0 -278 48 -328 120 l-25 35 7 -29z"/>
<path d="M216 1510 c33 -58 91 -88 202 -106 38 -6 42 -5 42 15 0 18 -6 21 -45
21 -60 0 -140 32 -183 72 l-35 33 19 -35z"/>
<path d="M1080 1510 c0 -67 98 -124 233 -137 l69 -6 -12 24 c-11 21 -8 20 21
-8 19 -18 61 -45 94 -60 56 -26 69 -28 185 -28 144 0 205 17 272 74 35 30 40
32 34 13 -7 -21 -5 -22 62 -22 134 0 249 56 267 131 10 42 -9 42 -43 0 -17
-21 -47 -46 -67 -55 -49 -24 -154 -39 -185 -28 -19 7 -31 5 -52 -10 -15 -10
-53 -31 -85 -46 -54 -25 -67 -27 -193 -27 -147 0 -202 13 -270 64 -26 19 -52
27 -105 32 -85 8 -162 42 -184 81 -23 40 -41 44 -41 8z"/>
<path d="M515 1508 c13 -42 34 -66 78 -87 53 -25 167 -40 167 -21 0 6 15 -1
34 -18 41 -35 112 -61 181 -64 43 -3 53 -7 72 -34 38 -54 129 -95 241 -109 47
-6 52 -5 52 13 0 16 -9 20 -59 25 -88 10 -170 44 -217 91 -34 33 -47 40 -73
38 -47 -5 -151 25 -197 57 -25 17 -60 31 -94 35 -64 9 -124 38 -146 71 -21 32
-48 34 -39 3z"/>
<path d="M1146 1499 c9 -15 106 -39 153 -38 44 1 43 2 -17 11 -35 4 -81 15
-103 22 -21 7 -36 10 -33 5z"/>
<path d="M603 1490 c10 -6 44 -13 75 -15 l57 -4 -50 8 c-28 5 -62 11 -75 15
-21 6 -22 5 -7 -4z"/>
<path d="M2889 1469 c-30 -42 -99 -72 -176 -74 -35 -1 -68 -7 -75 -12 -28 -23
-96 -51 -146 -62 -66 -14 -132 -14 -132 -1 0 6 -13 -5 -30 -23 -44 -51 -139
-90 -232 -95 -68 -4 -78 -7 -78 -23 0 -16 8 -19 48 -19 104 0 241 58 272 115
7 13 18 21 23 18 18 -11 117 -3 166 14 25 8 60 26 78 39 22 17 34 21 39 13 5
-8 29 -10 76 -6 89 8 171 44 192 86 32 61 13 83 -25 30z"/>
<path d="M2170 1470 c-14 -4 -55 -8 -92 -9 -39 -1 -70 -6 -74 -13 -10 -16 134
-3 178 16 36 16 29 19 -12 6z"/>
<path d="M3223 1450 c-37 -33 -114 -58 -190 -62 -44 -3 -53 -6 -53 -22 0 -17
6 -18 58 -13 106 12 175 42 208 92 24 36 14 38 -23 5z"/>
<path d="M481 1439 c-2 -68 76 -121 204 -140 l75 -11 0 -39 c0 -78 96 -144
226 -156 51 -5 68 -3 75 8 15 24 10 29 -34 29 -138 0 -259 76 -259 163 l0 34
-79 11 c-112 16 -173 51 -198 112 -9 24 -10 23 -10 -11z"/>
<path d="M2818 1454 c-4 -3 -37 -9 -75 -13 -63 -8 -64 -8 -18 -9 45 0 151 24
114 27 -9 1 -18 -2 -21 -5z"/>
<path d="M2950 1411 c0 -5 -11 -23 -25 -40 -36 -42 -122 -72 -210 -74 -68 -1
-71 -2 -67 -23 10 -56 -63 -131 -153 -156 -22 -6 -70 -11 -107 -12 l-68 -1 0
-37 c0 -90 -131 -168 -282 -168 -55 0 -58 -1 -58 -25 0 -57 -54 -120 -135
-156 -68 -31 -209 -38 -290 -15 -111 33 -175 96 -175 173 l0 40 -61 2 c-110 3
-200 48 -242 119 -24 41 -34 28 -17 -23 24 -72 121 -126 253 -141 l57 -7 0
-37 c0 -119 195 -212 381 -181 141 23 239 100 239 187 0 23 3 24 58 24 62 0
139 18 188 43 50 26 94 83 94 121 l0 33 73 6 c151 11 257 82 257 172 0 21 4
25 19 20 58 -18 233 40 264 89 19 29 27 65 16 72 -5 3 -9 1 -9 -5z"/>
<path d="M3172 1348 c-43 -24 -69 -31 -134 -35 -54 -4 -81 -10 -85 -20 -15
-38 -159 -92 -245 -93 -29 0 -38 -4 -38 -16 0 -15 10 -16 76 -11 89 7 178 45
202 86 13 23 22 26 72 28 70 3 158 34 190 68 28 30 28 30 -38 -7z"/>
<path d="M280 1340 c0 -54 80 -107 176 -117 39 -4 73 -16 105 -35 29 -18 73
-34 116 -41 62 -11 73 -16 107 -54 41 -46 110 -78 194 -89 40 -5 50 -3 55 10
8 19 1 22 -70 30 -71 7 -146 41 -186 85 -27 29 -41 37 -78 39 -69 4 -113 19
-169 57 -29 19 -59 35 -69 35 -39 0 -95 24 -130 56 -40 36 -51 41 -51 24z"/>
<path d="M800 1315 c0 -63 121 -130 223 -124 33 2 53 -5 92 -29 56 -37 97 -50
174 -59 43 -5 53 -3 49 8 -2 8 -18 15 -34 16 -97 9 -178 37 -224 78 -17 15
-43 24 -83 29 -66 7 -126 34 -154 69 -30 38 -43 42 -43 12z"/>
<path d="M1900 1290 c-54 -62 -120 -89 -221 -90 -98 0 -165 25 -221 82 -26 26
-50 48 -54 48 -15 0 8 -66 34 -93 39 -41 91 -65 170 -79 167 -28 352 58 340
157 -3 26 -4 25 -48 -25z"/>
<path d="M370 1311 c8 -5 35 -11 60 -15 30 -4 36 -3 20 3 -41 13 -97 22 -80
12z"/>
<path d="M2575 1284 c-37 -49 -99 -75 -183 -77 -53 -2 -74 -7 -96 -24 -42 -33
-133 -64 -208 -70 -49 -4 -68 -10 -68 -20 0 -31 177 8 253 56 26 17 47 26 47
21 0 -29 188 3 241 41 31 21 59 67 59 94 0 25 -16 17 -45 -21z"/>
<path d="M1835 1277 c-65 -27 -246 -30 -312 -4 -53 20 -57 13 -5 -9 22 -10 77
-18 137 -21 84 -4 109 -2 159 16 33 11 64 25 70 31 13 13 11 12 -49 -13z"/>
<path d="M3140 1269 c-30 -36 -87 -58 -152 -59 -26 0 -50 -5 -53 -10 -27 -43
-265 -106 -265 -70 0 6 -16 -7 -35 -29 -47 -51 -122 -83 -212 -89 -65 -4 -73
-7 -73 -25 0 -18 4 -19 60 -13 116 13 211 57 239 109 10 18 19 22 46 19 49 -6
133 15 185 45 34 20 56 26 92 24 98 -5 193 43 213 107 10 33 -15 28 -45 -9z"/>
<path d="M251 1272 c-2 -72 90 -135 203 -136 50 -1 61 2 64 17 3 14 -4 17 -51
17 -93 0 -183 45 -207 105 -8 19 -9 19 -9 -3z"/>
<path d="M925 1280 c19 -8 113 -14 104 -6 -2 2 -31 6 -64 9 -38 4 -53 3 -40
-3z"/>
<path d="M2498 1265 c-3 -3 -38 -9 -79 -15 l-74 -9 72 4 c40 2 81 8 90 14 10
6 13 11 7 11 -6 0 -13 -2 -16 -5z"/>
<path d="M3000 1250 l-45 -7 40 -1 c22 0 51 4 65 8 32 10 5 10 -60 0z"/>
<path d="M3211 1236 c-2 -30 -74 -91 -123 -105 -25 -7 -72 -13 -105 -13 -55
-1 -60 -3 -55 -21 5 -18 12 -19 81 -15 126 7 222 76 208 148 -3 17 -5 19 -6 6z"/>
<path d="M253 1153 c9 -17 31 -41 48 -53 60 -44 189 -67 189 -35 0 10 -10 15
-33 15 -59 0 -136 29 -179 68 l-41 37 16 -32z"/>
<path d="M546 1142 c15 -63 90 -109 192 -116 29 -2 61 -11 70 -19 34 -31 127
-66 182 -69 49 -3 56 -6 69 -32 30 -59 121 -104 244 -122 42 -6 47 -4 47 13 0
17 -9 21 -66 26 -36 4 -89 17 -118 30 -49 23 -116 79 -116 98 0 5 -23 9 -50 9
-64 0 -149 30 -199 69 -24 19 -59 35 -90 41 -64 12 -106 34 -127 64 -8 14 -22
27 -30 30 -11 4 -13 0 -8 -22z"/>
<path d="M1341 1143 c-2 -23 21 -68 47 -96 64 -68 178 -102 321 -95 134 7 237
52 281 123 29 46 24 66 -6 27 -133 -169 -555 -144 -636 38 -4 8 -7 10 -7 3z"/>
<path d="M1100 1112 c0 -42 54 -95 117 -115 58 -19 137 -27 154 -16 8 5 27 -5
50 -25 61 -56 138 -79 254 -79 115 -1 193 22 257 73 21 17 38 26 38 19 0 -9
23 -10 85 -7 136 9 235 70 235 146 0 19 -2 21 -19 10 -11 -7 -22 -20 -24 -29
-11 -42 -167 -96 -240 -82 -20 4 -35 -2 -61 -25 -64 -56 -136 -76 -271 -76
-138 0 -201 18 -272 79 -30 25 -51 35 -75 35 -69 0 -137 29 -184 77 l-44 47 0
-32z"/>
<path d="M3195 1102 c-37 -41 -118 -71 -192 -72 -45 0 -53 -3 -53 -19 0 -16 6
-18 43 -14 115 11 193 47 222 104 22 42 16 42 -20 1z"/>
<path d="M2853 1092 c-43 -43 -83 -60 -160 -66 -36 -2 -62 -11 -87 -31 -48
-36 -149 -67 -213 -64 -46 2 -55 -1 -80 -28 -45 -48 -125 -83 -219 -96 -61 -8
-84 -15 -84 -26 0 -11 14 -13 77 -8 99 7 196 53 232 110 15 23 27 33 31 26 16
-26 194 20 249 65 7 6 46 11 86 12 87 3 149 27 188 73 23 28 37 71 22 71 -2 0
-21 -17 -42 -38z"/>
<path d="M648 1113 c7 -3 16 -2 19 1 4 3 -2 6 -13 5 -11 0 -14 -3 -6 -6z"/>
<path d="M511 1085 c-3 -75 88 -140 210 -151 61 -6 66 -5 72 15 5 19 1 21 -42
21 -102 0 -222 64 -234 123 -3 17 -5 15 -6 -8z"/>
<path d="M698 1103 c12 -2 30 -2 40 0 9 3 -1 5 -23 4 -22 0 -30 -2 -17 -4z"/>
<path d="M1215 1076 c34 -15 144 -33 132 -20 -4 4 -33 11 -65 15 -31 4 -66 10
-77 13 -11 4 -6 0 10 -8z"/>
<path d="M2170 1069 c-14 -6 -59 -14 -100 -19 l-75 -9 75 4 c42 2 91 10 110
18 39 17 30 22 -10 6z"/>
<path d="M2778 1073 c7 -3 16 -2 19 1 4 3 -2 6 -13 5 -11 0 -14 -3 -6 -6z"/>
<path d="M285 1060 c13 -22 94 -59 147 -69 49 -9 64 -17 105 -60 36 -37 62
-53 102 -65 67 -20 117 -21 124 -2 4 10 -9 15 -52 19 -32 4 -78 15 -102 25
-45 19 -109 74 -109 93 0 6 -3 8 -7 6 -16 -10 -120 14 -166 38 -26 13 -45 20
-42 15z"/>
<path d="M2683 1063 c15 -2 39 -2 55 0 15 2 2 4 -28 4 -30 0 -43 -2 -27 -4z"/>
<path d="M2909 1027 c-25 -50 -110 -89 -208 -95 -73 -4 -78 -6 -73 -25 5 -18
11 -19 80 -14 121 9 209 63 226 140 9 37 -5 34 -25 -6z"/>
<path d="M3163 1005 c-36 -25 -104 -46 -166 -50 -47 -3 -62 -8 -78 -29 -32
-41 -121 -78 -199 -84 -53 -3 -70 -8 -70 -20 0 -12 12 -14 70 -10 83 6 171 45
196 87 15 25 24 29 82 34 66 7 158 43 182 72 16 19 10 19 -17 0z"/>
<path d="M820 954 c0 -65 91 -125 200 -132 56 -4 70 -9 105 -39 42 -36 112
-61 185 -65 40 -3 48 -7 67 -39 26 -42 80 -80 149 -105 76 -28 241 -25 319 5
66 26 155 105 155 137 0 14 -7 10 -30 -18 -18 -21 -59 -51 -98 -70 -65 -32
-70 -33 -192 -33 -117 0 -129 2 -188 29 -55 25 -132 92 -132 114 0 4 -18 6
-40 4 -63 -6 -169 31 -222 78 -26 22 -56 40 -68 40 -49 0 -113 24 -147 56 -60
57 -63 59 -63 38z"/>
<path d="M438 953 c6 -2 18 -2 25 0 6 3 1 5 -13 5 -14 0 -19 -2 -12 -5z"/>
<path d="M2546 900 c-43 -44 -110 -70 -184 -70 -35 0 -52 -6 -77 -29 -43 -38
-127 -69 -209 -77 -77 -8 -88 -24 -18 -24 63 0 139 23 188 57 32 22 54 28 126
34 127 9 201 51 223 127 9 32 -5 27 -49 -18z"/>
<path d="M1414 902 c9 -52 41 -88 104 -119 51 -25 67 -28 162 -28 116 0 170
17 222 69 28 28 55 92 44 104 -4 3 -28 -17 -54 -45 -50 -55 -76 -69 -162 -85
-39 -7 -71 -6 -114 2 -79 16 -112 33 -165 89 l-43 46 6 -33z"/>
<path d="M783 883 c3 -23 13 -53 23 -67 28 -39 129 -85 202 -92 61 -7 62 -7
62 -36 0 -43 28 -95 66 -125 42 -31 142 -63 200 -63 l44 0 0 -41 c0 -88 82
-158 216 -186 179 -36 364 45 388 170 6 33 6 33 90 44 139 19 229 79 242 162
l6 38 67 6 c92 8 157 33 201 77 38 38 56 87 39 105 -6 5 -9 3 -9 -8 0 -28 -58
-83 -111 -107 -30 -12 -83 -24 -125 -27 -70 -6 -74 -7 -74 -30 0 -93 -124
-174 -272 -177 l-68 -1 0 -33 c0 -103 -126 -183 -289 -184 -167 -1 -291 82
-291 195 l0 34 -69 6 c-149 12 -256 99 -239 191 5 22 2 24 -63 29 -69 6 -147
34 -183 65 -10 9 -27 35 -38 57 l-19 40 4 -42z"/>
<path d="M948 903 c6 -2 18 -2 25 0 6 3 1 5 -13 5 -14 0 -19 -2 -12 -5z"/>
<path d="M3028 903 c7 -3 16 -2 19 1 4 3 -2 6 -13 5 -11 0 -14 -3 -6 -6z"/>
<path d="M1003 893 c9 -2 23 -2 30 0 6 3 -1 5 -18 5 -16 0 -22 -2 -12 -5z"/>
<path d="M2953 893 c9 -2 23 -2 30 0 6 3 -1 5 -18 5 -16 0 -22 -2 -12 -5z"/>
<path d="M2445 880 c-28 -7 -28 -8 -5 -9 14 0 32 4 40 9 17 11 8 11 -35 0z"/>
<path d="M558 858 c29 -33 101 -64 167 -73 41 -5 53 -11 66 -34 34 -59 137
-111 219 -111 63 0 52 26 -14 33 -74 7 -149 42 -191 88 -29 33 -44 40 -93 48
-66 10 -126 33 -157 59 -15 12 -14 10 3 -10z"/>
<path d="M1810 858 c-14 -6 -68 -14 -120 -18 l-95 -8 95 2 c60 2 108 8 130 19
39 17 30 22 -10 5z"/>
<path d="M2358 863 c12 -2 30 -2 40 0 9 3 -1 5 -23 4 -22 0 -30 -2 -17 -4z"/>
<path d="M1540 850 c8 -5 24 -10 34 -10 26 0 18 6 -19 14 -22 5 -26 4 -15 -4z"/>
<path d="M2845 805 c-37 -22 -155 -50 -186 -44 -8 2 -33 -16 -56 -38 -47 -46
-110 -71 -200 -80 -47 -4 -63 -10 -63 -21 0 -12 12 -14 71 -10 84 6 174 47
204 95 18 27 27 31 80 36 75 8 141 30 180 62 37 31 23 31 -30 0z"/>
<path d="M708 753 c7 -3 16 -2 19 1 4 3 -2 6 -13 5 -11 0 -14 -3 -6 -6z"/>
<path d="M1114 734 c19 -73 99 -124 210 -132 61 -4 75 -9 100 -33 116 -112
384 -115 504 -6 19 18 36 21 105 22 88 2 160 25 204 67 22 21 50 85 40 94 -2
3 -26 -17 -53 -43 -56 -54 -103 -73 -186 -73 -47 0 -58 -4 -82 -29 -58 -61
-217 -108 -322 -95 -92 11 -170 43 -223 90 -29 26 -59 44 -73 44 -60 0 -133
32 -174 76 -48 51 -59 55 -50 18z"/>
<path d="M2718 713 c6 -2 18 -2 25 0 6 3 1 5 -13 5 -14 0 -19 -2 -12 -5z"/>
<path d="M2653 703 c9 -2 23 -2 30 0 6 3 -1 5 -18 5 -16 0 -22 -2 -12 -5z"/>
<path d="M1275 680 c17 -4 44 -8 60 -8 25 0 24 2 -10 9 -51 10 -92 10 -50 -1z"/>
<path d="M834 653 c34 -38 103 -69 174 -79 45 -6 54 -11 71 -40 36 -60 124
-105 235 -120 42 -6 46 -5 46 15 0 18 -6 21 -43 21 -91 0 -213 58 -239 114 -8
20 -21 25 -67 31 -70 9 -146 37 -180 67 -23 20 -23 19 3 -9z"/>
<path d="M2128 673 c7 -3 16 -2 19 1 4 3 -2 6 -13 5 -11 0 -14 -3 -6 -6z"/>
<path d="M2028 663 c18 -2 45 -2 60 0 15 2 0 4 -33 4 -33 0 -45 -2 -27 -4z"/>
<path d="M978 543 c6 -2 18 -2 25 0 6 3 1 5 -13 5 -14 0 -19 -2 -12 -5z"/>
<path d="M1890 498 c-105 -116 -299 -119 -414 -7 -54 52 -72 48 -42 -10 52
-99 237 -144 378 -91 60 22 113 71 124 115 11 45 -1 43 -46 -7z"/>
<path d="M1038 533 c7 -3 16 -2 19 1 4 3 -2 6 -13 5 -11 0 -14 -3 -6 -6z"/>
<path d="M2408 513 c7 -3 16 -2 19 1 4 3 -2 6 -13 5 -11 0 -14 -3 -6 -6z"/>
<path d="M1578 453 c7 -3 16 -2 19 1 4 3 -2 6 -13 5 -11 0 -14 -3 -6 -6z"/>
<path d="M1758 453 c6 -2 18 -2 25 0 6 3 1 5 -13 5 -14 0 -19 -2 -12 -5z"/>
<path d="M1637 443 c18 -2 50 -2 70 0 21 2 7 4 -32 4 -38 0 -55 -2 -38 -4z"/>
<path d="M1313 313 c9 -2 25 -2 35 0 9 3 1 5 -18 5 -19 0 -27 -2 -17 -5z"/>
<path d="M2088 303 c7 -3 16 -2 19 1 4 3 -2 6 -13 5 -11 0 -14 -3 -6 -6z"/>
<path d="M1412 223 c20 -31 59 -60 115 -86 40 -18 66 -22 153 -22 99 0 110 2
171 32 35 18 76 44 89 59 26 29 14 25 -35 -12 -123 -91 -365 -79 -479 25 -25
22 -27 23 -14 4z"/>
<path d="M1663 73 c9 -2 25 -2 35 0 9 3 1 5 -18 5 -19 0 -27 -2 -17 -5z"/>
</g>
</svg>
